<svg xmlns="http://www.w3.org/2000/svg" viewBox="0 0 750 500"><g id="freepik--background-simple--inject-33"><path d="M733.34,251A220.74,220.74,0,0,0,571.85,48.78C522.94,35.18,464,25,406.63,30.63,271.4,43.91,58.19,236.38,48.23,262.1s-.83,184.17-.83,184.17h643s48.11-71.35,43.14-191.64C733.45,253.43,733.39,252.23,733.34,251Z" style="fill:#263238"></path><path d="M733.34,251A220.74,220.74,0,0,0,571.85,48.78C522.94,35.18,464,25,406.63,30.63,271.4,43.91,58.19,236.38,48.23,262.1s-.83,184.17-.83,184.17h643s48.11-71.35,43.14-191.64C733.45,253.43,733.39,252.23,733.34,251Z" style="fill:#fff;opacity:0.7000000000000001"></path></g><g id="freepik--plant-2--inject-33"><path d="M628.79,323s-2.34,6.43-7.3,7.3-13.73-8.76-8.18-13.72S626.45,319.46,628.79,323Z" style="fill:#263238;stroke:#263238;stroke-linecap:round;stroke-linejoin:round"></path><path d="M636.38,291.42S629.08,309.23,632,318s21,15.18,26.28,3.79-6.42-27.45-10.8-31S637.84,288.5,636.38,291.42Z" style="fill:#263238;stroke:#263238;stroke-linecap:round;stroke-linejoin:round"></path><path d="M679,299s-12.56,11.39-14,22.78,7,15.48,15.77,14,13.14-23.66,10.52-33.88S679,299,679,299Z" style="fill:#263238;stroke:#263238;stroke-linecap:round;stroke-linejoin:round"></path><path d="M681.36,362.09s-14,.59-14.61,7.31,6.14,8.17,12.85,2.33S687.2,362.39,681.36,362.09Z" style="fill:#263238;stroke:#263238;stroke-linecap:round;stroke-linejoin:round"></path><path d="M646.6,376.11s-1.46,7-6.71,9.64-14.61-2.92-9.64-11.39S644,372.61,646.6,376.11Z" style="fill:#263238;stroke:#263238;stroke-linecap:round;stroke-linejoin:round"></path><path d="M634.34,354.21s-2.63-5.84-12.85-2-14.31,9.64-7.89,11.69S634.34,354.21,634.34,354.21Z" style="fill:#263238;stroke:#263238;stroke-linecap:round;stroke-linejoin:round"></path><path d="M663.54,284.12s1.75,4.09,5.26,3.21,4.38-6.13,9.93-4.67,10.22,7.88,10.22,5-7-10.51-14.9-10.51S663.83,280.32,663.54,284.12Z" style="fill:#263238;stroke:#263238;stroke-linecap:round;stroke-linejoin:round"></path><path d="M649.09,328.23s6.11,17.89,7.42,33.17,0,39.71,0,39.71" style="fill:none;stroke:#263238;stroke-linecap:round;stroke-linejoin:round"></path><path d="M670.48,334.34s-7,20.51-8.73,33.6-2.18,33.17-2.18,33.17" style="fill:none;stroke:#263238;stroke-linecap:round;stroke-linejoin:round"></path><path d="M667,371s-3.06.87-4.8,30.54" style="fill:none;stroke:#263238;stroke-linecap:round;stroke-linejoin:round"></path><path d="M646.6,376.11s2.93-2.5,4.68,3.18.87,21.38.87,21.38" style="fill:none;stroke:#263238;stroke-linecap:round;stroke-linejoin:round"></path><path d="M654.15,373.3c2.29,12.79.18,26.93.18,26.93" style="fill:none;stroke:#263238;stroke-linecap:round;stroke-linejoin:round"></path><path d="M634.34,354.21s12.57-2.41,17.81,11.55a38.53,38.53,0,0,1,1.31,4.27" style="fill:none;stroke:#263238;stroke-linecap:round;stroke-linejoin:round"></path><path d="M686.82,340.68s2.63-5.84,12.85-2,14.31,9.63,7.88,11.68S686.82,340.68,686.82,340.68Z" style="fill:#263238;stroke:#263238;stroke-linecap:round;stroke-linejoin:round"></path><path d="M675.64,343.24a18.15,18.15,0,0,0-6.63,9c-5.24,14-4.64,48.44-4.64,48.44" style="fill:none;stroke:#263238;stroke-linecap:round;stroke-linejoin:round"></path><path d="M686.82,340.68a16.19,16.19,0,0,0-8.71,1.19" style="fill:none;stroke:#263238;stroke-linecap:round;stroke-linejoin:round"></path><path d="M642.56,331.87A41.28,41.28,0,0,1,650,345.25c7,20.07,9.6,45.82,8.29,55.42" style="fill:none;stroke:#263238;stroke-linecap:round;stroke-linejoin:round"></path><path d="M628.79,323s6.09,1,12.25,7.24" style="fill:none;stroke:#263238;stroke-linecap:round;stroke-linejoin:round"></path><path d="M660.29,350.66c-.42,25.33-.72,50.45-.72,50.45" style="fill:none;stroke:#263238;stroke-linecap:round;stroke-linejoin:round"></path><path d="M663.54,284.12s-1.35-1.27-2.23,21.42c-.34,8.82-.68,25.21-1,42" style="fill:none;stroke:#263238;stroke-linecap:round;stroke-linejoin:round"></path><path d="M672.14,445.62H646.55a5.33,5.33,0,0,1-5.3-4.81l-3.94-40.58h44.08l-3.94,40.58A5.33,5.33,0,0,1,672.14,445.62Z" style="fill:#fff;stroke:#263238;stroke-linecap:round;stroke-linejoin:round"></path><polygon points="638.63 413.76 639.09 418.56 679.61 418.56 680.07 413.76 638.63 413.76" style="fill:#263238;stroke:#263238;stroke-linecap:round;stroke-linejoin:round"></polygon><polygon points="678.59 429.04 678.84 426.42 639.85 426.42 640.11 429.04 678.59 429.04" style="fill:#263238;stroke:#263238;stroke-linecap:round;stroke-linejoin:round"></polygon><circle cx="675.28" cy="408.09" r="3.49" style="fill:#263238;stroke:#263238;stroke-linecap:round;stroke-linejoin:round"></circle><path d="M643.86,411.58a3.49,3.49,0,1,0-3.49-3.49A3.49,3.49,0,0,0,643.86,411.58Z" style="fill:#263238;stroke:#263238;stroke-linecap:round;stroke-linejoin:round"></path><path d="M650.84,408.09a3.49,3.49,0,1,0,3.49-3.49A3.49,3.49,0,0,0,650.84,408.09Z" style="fill:#263238;stroke:#263238;stroke-linecap:round;stroke-linejoin:round"></path><circle cx="664.8" cy="408.09" r="3.49" style="fill:#263238;stroke:#263238;stroke-linecap:round;stroke-linejoin:round"></circle></g><g id="freepik--plant-1--inject-33"><line x1="94.67" y1="70.91" x2="97.73" y2="62.15" style="fill:none;stroke:#263238;stroke-linecap:round;stroke-linejoin:round"></line><line x1="94.89" y1="47.27" x2="94.89" y2="79.88" style="fill:none;stroke:#263238;stroke-linecap:round;stroke-linejoin:round"></line><path d="M89.87,64.19s-4.54-4.95-9.08-4.13-6.61,6.2-6.61,9.5,4.54,14,4.54,14a71.67,71.67,0,0,1,10.74-9.08C96.89,69.15,97.3,63.78,89.87,64.19Z" style="fill:#263238;stroke:#263238;stroke-linecap:round;stroke-linejoin:round"></path><path d="M89.87,64.19a22.67,22.67,0,0,0-9.08,9.5" style="fill:none;stroke:#263238;stroke-linecap:round;stroke-linejoin:round"></path><path d="M97.27,58.38S101,54.3,104.77,55s5.43,5.12,5.42,7.84-3.77,11.56-3.77,11.56a59.44,59.44,0,0,0-8.83-7.51C91.48,62.44,91.15,58,97.27,58.38Z" style="fill:#263238;stroke:#263238;stroke-linecap:round;stroke-linejoin:round"></path><path d="M97.27,58.38a18.68,18.68,0,0,1,7.47,7.84" style="fill:none;stroke:#263238;stroke-linecap:round;stroke-linejoin:round"></path><line x1="94.23" y1="52.96" x2="99.92" y2="44.65" style="fill:none;stroke:#263238;stroke-linecap:round;stroke-linejoin:round"></line><path d="M93.28,50.56s-.09-5.54-3.35-7.51-7.45.21-9.26,2.25S75.8,56.43,75.8,56.43a59.51,59.51,0,0,1,11.58.27C94.9,57.45,98.09,54.37,93.28,50.56Z" style="fill:#263238;stroke:#263238;stroke-linecap:round;stroke-linejoin:round"></path><path d="M93.28,50.56a18.67,18.67,0,0,0-10.79.89" style="fill:none;stroke:#263238;stroke-linecap:round;stroke-linejoin:round"></path><path d="M98.17,43.14s.07-4.08,2.46-5.53,5.49.15,6.82,1.65,3.59,8.2,3.59,8.2a43.15,43.15,0,0,0-8.53.2C97,48.21,94.63,45.94,98.17,43.14Z" style="fill:#263238;stroke:#263238;stroke-linecap:round;stroke-linejoin:round"></path><path d="M98.17,43.14a13.72,13.72,0,0,1,7.94.65" style="fill:none;stroke:#263238;stroke-linecap:round;stroke-linejoin:round"></path><polygon points="108.79 77.08 79.46 77.08 82.44 107.62 105.82 107.62 108.79 77.08" style="fill:#263238;stroke:#263238;stroke-linecap:round;stroke-linejoin:round"></polygon></g><g id="freepik--Toaster--inject-33"><path d="M666.42,218H645.66a11.2,11.2,0,0,0-11.2,11.21v24.21h43.16V229.17A11.2,11.2,0,0,0,666.42,218Z" style="fill:#263238;stroke:#263238;stroke-miterlimit:10"></path><rect x="634.46" y="248.58" width="43.17" height="4.8" style="fill:#263238;stroke:#263238;stroke-miterlimit:10"></rect><path d="M662.63,218h20.76a11.2,11.2,0,0,1,11.2,11.2v24.21a0,0,0,0,1,0,0H651.43a0,0,0,0,1,0,0V229.17A11.2,11.2,0,0,1,662.63,218Z" style="fill:#263238;stroke:#263238;stroke-miterlimit:10"></path><rect x="651.43" y="248.58" width="43.17" height="4.8" style="fill:#263238;stroke:#263238;stroke-miterlimit:10"></rect><path d="M642.39,245.26h0a3.51,3.51,0,0,1-3.51-3.5V227.37a3.51,3.51,0,0,1,3.51-3.51h0a3.51,3.51,0,0,1,3.5,3.51v14.39A3.5,3.5,0,0,1,642.39,245.26Z" style="fill:#263238;stroke:#263238;stroke-miterlimit:10"></path><path d="M645.52,232.35h-7a1.85,1.85,0,0,1-1.84-1.84h0a1.85,1.85,0,0,1,1.84-1.85h7a1.85,1.85,0,0,1,1.85,1.85h0A1.85,1.85,0,0,1,645.52,232.35Z" style="fill:#fff;stroke:#263238;stroke-miterlimit:10"></path></g><g id="freepik--Mixer--inject-33"><path d="M689.86,154.13l-6.31-37-22.46-3.83a13.63,13.63,0,0,0-15.86,12.23l-2.8,31.35h44.69Z" style="fill:#fff;stroke:#263238;stroke-miterlimit:10"></path><path d="M656.41,121.28h0a4.07,4.07,0,0,0,4.07,4.06h13.4a3.08,3.08,0,0,0,3.09-3.08h0a3.08,3.08,0,0,0-2.64-3.06l-13.26-2A4.07,4.07,0,0,0,656.41,121.28Z" style="fill:#fff;stroke:#263238;stroke-miterlimit:10"></path><polyline points="662.99 149.47 664.91 143.16 687.67 143.16" style="fill:#fff;stroke:#263238;stroke-miterlimit:10"></polyline><path d="M671.21,147.55H628.72a67.81,67.81,0,0,0,3.49,20.87c1.46,4.29,5.44,5.18,8.54,5.18h18.43c3.11,0,7.08-.89,8.54-5.18A67.45,67.45,0,0,0,671.21,147.55Z" style="fill:#fff;stroke:#263238;stroke-miterlimit:10"></path><path d="M634.9,173h30.69a2.61,2.61,0,0,1,2.61,2.61v10a0,0,0,0,1,0,0H632.28a0,0,0,0,1,0,0v-10A2.61,2.61,0,0,1,634.9,173Z" style="fill:#fff;stroke:#263238;stroke-miterlimit:10"></path><path d="M680.4,147.55h0a9.41,9.41,0,0,0-9.36,8.5l-2.84,29.61h24.4l-2.84-29.61A9.41,9.41,0,0,0,680.4,147.55Z" style="fill:#fff;stroke:#263238;stroke-miterlimit:10"></path><path d="M684.92,157.42a4.94,4.94,0,1,0-4.93,4.94A4.93,4.93,0,0,0,684.92,157.42Z" style="fill:#263238;stroke:#263238;stroke-miterlimit:10"></path></g><g id="freepik--coffee-maker--inject-33"><path d="M571.54,298.58h-27.4a2.11,2.11,0,0,1-2.08-1.75l-1.41-8.13H575l-1.41,8.13A2.12,2.12,0,0,1,571.54,298.58Z" style="fill:#263238;stroke:#263238;stroke-miterlimit:10"></path><rect x="544.14" y="298.58" width="3" height="1.2" style="fill:#263238;stroke:#263238;stroke-miterlimit:10"></rect><rect x="556.35" y="298.58" width="3" height="1.2" style="fill:#263238;stroke:#263238;stroke-miterlimit:10"></rect><rect x="568.56" y="298.58" width="3" height="1.2" style="fill:#263238;stroke:#263238;stroke-miterlimit:10"></rect><rect x="537.93" y="218.67" width="39.82" height="78.14" style="fill:#adadad;stroke:#263238;stroke-miterlimit:10"></rect><rect x="537.93" y="286.93" width="39.82" height="9.88" style="fill:#adadad;stroke:#263238;stroke-miterlimit:10"></rect><rect x="541.61" y="286.93" width="32.46" height="9.88" style="fill:#dedede;stroke:#263238;stroke-miterlimit:10"></rect><polygon points="570.07 252.5 545.61 252.5 542.55 240.38 573.13 240.38 570.07 252.5" style="fill:#263238;stroke:#263238;stroke-miterlimit:10"></polygon><rect x="537.93" y="218.67" width="39.82" height="26.95" style="fill:#adadad;stroke:#263238;stroke-miterlimit:10"></rect><rect x="541.28" y="218.67" width="33.12" height="26.95" style="fill:#dedede;stroke:#263238;stroke-miterlimit:10"></rect><rect x="537.93" y="218.67" width="39.82" height="1.55" style="fill:#fff;stroke:#263238;stroke-miterlimit:10"></rect><line x1="537.93" y1="224.51" x2="578.02" y2="224.51" style="fill:#fff;stroke:#263238;stroke-miterlimit:10"></line><rect x="553.72" y="231.95" width="9.16" height="6.77" style="fill:#263238;stroke:#263238;stroke-miterlimit:10"></rect><path d="M551.4,233.81h-3.32a1,1,0,0,1-1-1h0a1,1,0,0,1,1-1h3.32a1,1,0,0,1,1,1h0A1,1,0,0,1,551.4,233.81Z" style="fill:#fff;stroke:#263238;stroke-miterlimit:10"></path><path d="M551.4,238.32h-3.32a1,1,0,0,1-1-1h0a1,1,0,0,1,1-1h3.32a1,1,0,0,1,1,1h0A1,1,0,0,1,551.4,238.32Z" style="fill:#fff;stroke:#263238;stroke-miterlimit:10"></path><path d="M568.86,233.81h-3.32a1,1,0,0,1-1-1h0a1,1,0,0,1,1-1h3.32a1,1,0,0,1,1,1h0A1,1,0,0,1,568.86,233.81Z" style="fill:#fff;stroke:#263238;stroke-miterlimit:10"></path><path d="M568.86,238.32h-3.32a1,1,0,0,1-1-1h0a1,1,0,0,1,1-1h3.32a1,1,0,0,1,1,1h0A1,1,0,0,1,568.86,238.32Z" style="fill:#fff;stroke:#263238;stroke-miterlimit:10"></path><path d="M576,287.08c.06-2.07.38-14.93-.7-22.84-1.18-8.62-6.79-11-6.79-11H547.83s-5.61,2.42-6.8,11c-1.08,7.91-.76,20.77-.69,22.84Z" style="fill:#263238;stroke:#263238;stroke-miterlimit:10"></path><path d="M574.3,260.2H542a14.14,14.14,0,0,1,3.14-5,9.6,9.6,0,0,1,2.65-2h20.68a9.6,9.6,0,0,1,2.65,2A14.28,14.28,0,0,1,574.3,260.2Z" style="fill:#fff;stroke:#263238;stroke-miterlimit:10"></path><polygon points="545.86 254.88 541.33 254.88 543.59 257.04 545.86 254.88" style="fill:#263238;stroke:#263238;stroke-miterlimit:10"></polygon><path d="M571.16,255.17h-26a9.6,9.6,0,0,1,2.65-2h20.68A9.6,9.6,0,0,1,571.16,255.17Z" style="fill:#263238;stroke:#263238;stroke-miterlimit:10"></path><path d="M581.9,256.26h-9.79a14.58,14.58,0,0,1,2.19,3.94h5.14a3.21,3.21,0,0,1,3,2.06V279.2c0,2.07-2.17,1.67-2.17,1.67l-4.23-.59c0,1.77,0,3.33,0,4.53h5.75c3.84,0,5.32-4,5.32-4V261.18C587.12,257,581.9,256.26,581.9,256.26Z" style="fill:#fff;stroke:#263238;stroke-miterlimit:10"></path></g><g id="freepik--Blender--inject-33"><path d="M512.29,293.7v1.61A1.28,1.28,0,0,1,511,296.6H479.12a1.29,1.29,0,0,1-1.29-1.29V293.7L483.34,274l.74-4.2,1.34-7.65.33-1.88h18.63l.33,1.88,1.34,7.65.73,4.2Z" style="fill:#263238;stroke:#263238;stroke-miterlimit:10"></path><polygon points="506.05 269.76 484.08 269.76 485.42 262.11 504.71 262.11 506.05 269.76" style="fill:#263238;stroke:#263238;stroke-miterlimit:10"></polygon><circle cx="494.87" cy="283.19" r="4.76" style="fill:#fff;stroke:#263238;stroke-miterlimit:10"></circle><path d="M497.92,283.19a3.05,3.05,0,1,0-3.05,3.05A3,3,0,0,0,497.92,283.19Z" style="fill:#263238;stroke:#263238;stroke-miterlimit:10"></path><rect x="480.73" y="296.56" width="2.46" height="2.14" style="fill:#263238;stroke:#263238;stroke-miterlimit:10"></rect><rect x="506.27" y="296.56" width="2.46" height="2.14" style="fill:#263238;stroke:#263238;stroke-miterlimit:10"></rect><path d="M507.91,224.75H479.43l2,2.63,2.88,26.18a15.38,15.38,0,0,0,2.37,6.67H503l.5-1a15.53,15.53,0,0,0,1.68-5.69Z" style="fill:#fff;stroke:#263238;stroke-miterlimit:10"></path><path d="M501.1,222.57H487a2,2,0,0,0-1.41.59l-1.38,1.4H503.9l-1.38-1.4A2,2,0,0,0,501.1,222.57Z" style="fill:#263238;stroke:#263238;stroke-miterlimit:10"></path><rect x="479.43" y="224.43" width="29.29" height="0.33" style="fill:#263238;stroke:#263238;stroke-miterlimit:10"></rect><rect x="490.2" y="220.99" width="9.25" height="1.58" style="fill:none;stroke:#263238;stroke-miterlimit:10"></rect><line x1="481.89" y1="229.22" x2="507.17" y2="229.22" style="fill:none;stroke:#263238;stroke-miterlimit:10"></line><path d="M513.12,232.75l-4.27-1.56-1.38-1.55-.11,1h0l-.11,1.18-.3,3a3.15,3.15,0,0,1,1.78-1.67l3.76,1.37a1,1,0,0,1,.63.9v11.07a3.13,3.13,0,0,1-.8,2.1,3.07,3.07,0,0,1-1.12.8L507.29,251a2.55,2.55,0,0,1-1.7-1.17l-.63,5.3a4.87,4.87,0,0,1,1.36-1.71l5.6-2.37a5,5,0,0,0,3.05-4.61V235.39A2.82,2.82,0,0,0,513.12,232.75Z" style="fill:#fff;stroke:#263238;stroke-miterlimit:10"></path><line x1="487.1" y1="231.06" x2="488.94" y2="256.69" style="fill:none;stroke:#263238;stroke-miterlimit:10;stroke-width:0.5px"></line><path d="M486.43,231.65S485,248.83,488.25,256" style="fill:none;stroke:#263238;stroke-miterlimit:10;stroke-width:0.5px"></path><path d="M488.08,231.59s2,16.84,1.42,24.18" style="fill:none;stroke:#263238;stroke-miterlimit:10;stroke-width:0.5px"></path><line x1="502.79" y1="231.06" x2="500.96" y2="256.69" style="fill:none;stroke:#263238;stroke-miterlimit:10;stroke-width:0.5px"></line><path d="M502.59,231.65s1.48,17.18-1.82,24.35" style="fill:none;stroke:#263238;stroke-miterlimit:10;stroke-width:0.5px"></path><path d="M500.94,231.59s-2,16.84-1.42,24.18" style="fill:none;stroke:#263238;stroke-miterlimit:10;stroke-width:0.5px"></path><line x1="491.09" y1="235.91" x2="491.43" y2="255.37" style="fill:none;stroke:#263238;stroke-miterlimit:10;stroke-width:0.5px"></line><line x1="496.21" y1="235.91" x2="495.87" y2="255.37" style="fill:none;stroke:#263238;stroke-miterlimit:10;stroke-width:0.5px"></line></g><g id="freepik--rice-cooker--inject-33"><rect x="358.51" y="290.19" width="4.73" height="4.92" rx="1.89" style="fill:#263238;stroke:#263238;stroke-miterlimit:10"></rect><rect x="384.48" y="290.19" width="4.73" height="4.92" rx="1.89" style="fill:#263238;stroke:#263238;stroke-miterlimit:10"></rect><path d="M373.91,259.68l-22.45-.19a2.8,2.8,0,0,0,.26.77c.52,1.06,0,8.69.78,15.54s1.72,12.75,4,14.39c3.49,2.55,7.89,3.4,12.12,3.69a54.61,54.61,0,0,0,13.52-.41c3.63-.67,7-1.64,9.24-3.28s3.19-7.53,4-14.39.26-14.48.78-15.54a3,3,0,0,0,.25-.77Z" style="fill:#263238;stroke:#263238;stroke-miterlimit:10"></path><path d="M351.85,265.38s-6.57-.39-7.34,1.35,2.41,1.64,3.77,2a28.27,28.27,0,0,1,3.66,1.54Z" style="fill:#263238;stroke:#263238;stroke-miterlimit:10"></path><path d="M396.26,265.38s6.56-.39,7.34,1.35-2.42,1.64-3.77,2a28.63,28.63,0,0,0-3.67,1.54Z" style="fill:#263238;stroke:#263238;stroke-miterlimit:10"></path><path d="M379.63,250H368.15a1.16,1.16,0,0,1-1.16-1.16h0a1.16,1.16,0,0,1,1.16-1.16h11.48a1.16,1.16,0,0,1,1.16,1.16h0A1.16,1.16,0,0,1,379.63,250Z" style="fill:#263238;stroke:#263238;stroke-miterlimit:10"></path><rect x="369.35" y="253.12" width="9.07" height="1.06" style="fill:#263238;stroke:#263238;stroke-miterlimit:10"></rect><path d="M376.57,250.22l-2.46-.08v0h-.44v0l-2.46.08s.82,1.11-.58,2.51h6.52C375.75,251.33,376.57,250.22,376.57,250.22Z" style="fill:#263238;stroke:#263238;stroke-miterlimit:10"></path><path d="M353.64,256s-.86-1.35,15.71-1.83h13.2S389,254,393.91,256v1.74H353.1Z" style="fill:none;stroke:#263238;stroke-miterlimit:10"></path><path d="M350.6,257.69l-1.14,1.8h48.86l-1.53-2a3.59,3.59,0,0,0-2.88-1.44H353.64A3.59,3.59,0,0,0,350.6,257.69Z" style="fill:#263238;stroke:#263238;stroke-miterlimit:10"></path><rect x="368.16" y="273.1" width="12.36" height="18.92" rx="5.08" style="fill:#263238;stroke:#263238;stroke-miterlimit:10"></rect><rect x="370.67" y="285.27" width="7.92" height="4.83" rx="1.78" style="fill:#6b6b6b;stroke:#263238;stroke-miterlimit:10"></rect></g><g id="freepik--Sink--inject-33"><rect x="204.24" y="307.61" width="131.96" height="138.66" style="fill:#a6a6a6;stroke:#263238;stroke-miterlimit:10"></rect><rect x="265.94" y="307.21" width="8.55" height="131.43" style="fill:#616161;stroke:#263238;stroke-miterlimit:10"></rect><rect x="265.94" y="300" width="8.55" height="7.21" style="fill:#fff;stroke:#263238;stroke-miterlimit:10"></rect><rect x="204.24" y="300" width="131.96" height="7.61" style="fill:#a6a6a6;stroke:#263238;stroke-miterlimit:10"></rect><rect x="204.24" y="439.04" width="131.96" height="7.23" style="fill:#a6a6a6;stroke:#263238;stroke-miterlimit:10"></rect><rect x="204.24" y="438.64" width="131.96" height="0.4" style="fill:#a6a6a6;stroke:#263238;stroke-miterlimit:10"></rect><rect x="263.14" y="336.46" width="38.52" height="2.56" transform="translate(620.14 55.35) rotate(90)" style="fill:#fff;stroke:#263238;stroke-miterlimit:10"></rect><rect x="239.77" y="336.46" width="38.52" height="2.56" transform="translate(596.77 78.71) rotate(90)" style="fill:#fff;stroke:#263238;stroke-miterlimit:10"></rect><path d="M271.27,261.44h0a1.88,1.88,0,0,0-1.87,1.88v36.57h3.75V263.32A1.88,1.88,0,0,0,271.27,261.44Z" style="fill:#fff;stroke:#263238;stroke-miterlimit:10"></path><path d="M271.27,261.44h0a1.88,1.88,0,0,0-1.87,1.88v12.57h3.75V263.32A1.88,1.88,0,0,0,271.27,261.44Z" style="fill:#fff;stroke:#263238;stroke-miterlimit:10"></path><polygon points="260.88 292.37 254.79 292.37 254.07 299.89 261.59 299.89 260.88 292.37" style="fill:#fff;stroke:#263238;stroke-miterlimit:10"></polygon><polygon points="259.17 292.37 256.5 292.37 256.18 299.89 259.48 299.89 259.17 292.37" style="fill:#fff;stroke:#263238;stroke-miterlimit:10"></polygon><polygon points="288.73 292.37 282.64 292.37 281.93 299.89 289.45 299.89 288.73 292.37" style="fill:#fff;stroke:#263238;stroke-miterlimit:10"></polygon><polygon points="287.02 292.37 284.35 292.37 284.04 299.89 287.34 299.89 287.02 292.37" style="fill:#fff;stroke:#263238;stroke-miterlimit:10"></polygon></g><g id="freepik--shelves-3--inject-33"><rect x="610.43" y="185.5" width="106.56" height="5.72" style="fill:#a6a6a6;stroke:#263238;stroke-miterlimit:10"></rect><rect x="610.43" y="253.38" width="106.56" height="5.72" style="fill:#a6a6a6;stroke:#263238;stroke-miterlimit:10"></rect></g><g id="freepik--Furniture--inject-33"><rect x="463.22" y="307.61" width="131.96" height="138.66" style="fill:#a6a6a6;stroke:#263238;stroke-miterlimit:10"></rect><rect x="463.22" y="307.61" width="131.96" height="70.59" style="fill:#a6a6a6;stroke:#263238;stroke-miterlimit:10"></rect><rect x="463.22" y="307.61" width="131.96" height="33.75" style="fill:#a6a6a6;stroke:#263238;stroke-miterlimit:10"></rect><rect x="528.96" y="307.61" width="66.22" height="138.66" style="fill:#a6a6a6;stroke:#263238;stroke-miterlimit:10"></rect><rect x="463.22" y="300" width="131.96" height="7.61" style="fill:#a6a6a6;stroke:#263238;stroke-miterlimit:10"></rect><rect x="477.08" y="321.61" width="38.52" height="2.56" style="fill:#fff;stroke:#263238;stroke-miterlimit:10"></rect><rect x="477.08" y="357.84" width="38.52" height="2.56" style="fill:#fff;stroke:#263238;stroke-miterlimit:10"></rect><rect x="501.84" y="412.64" width="38.52" height="2.56" transform="translate(935.02 -107.18) rotate(90)" style="fill:#fff;stroke:#263238;stroke-miterlimit:10"></rect><rect x="517.26" y="336.46" width="38.52" height="2.56" transform="translate(874.26 -198.78) rotate(90)" style="fill:#fff;stroke:#263238;stroke-miterlimit:10"></rect></g><g id="freepik--Cupboards--inject-33"><rect x="334.91" y="90.65" width="131.96" height="101.54" style="fill:#a6a6a6;stroke:#263238;stroke-miterlimit:10"></rect><rect x="398.55" y="92.48" width="4.69" height="98.93" style="fill:#616161;stroke:#263238;stroke-miterlimit:10"></rect><rect x="466.64" y="90.65" width="131.96" height="114.35" style="fill:#a6a6a6;stroke:#263238;stroke-miterlimit:10"></rect><rect x="471.72" y="90.65" width="121.8" height="114.35" style="fill:#616161;stroke:#263238;stroke-miterlimit:10"></rect><rect x="466.64" y="198.2" width="131.96" height="6.8" style="fill:#a6a6a6;stroke:#263238;stroke-miterlimit:10"></rect><rect x="466.64" y="90.65" width="131.96" height="66.78" style="fill:#a6a6a6;stroke:#263238;stroke-miterlimit:10"></rect><rect x="475.91" y="99.24" width="113.41" height="49.59" style="fill:#616161;stroke:#263238;stroke-miterlimit:10"></rect><rect x="203.19" y="90.65" width="131.96" height="114.35" style="fill:#a6a6a6;stroke:#263238;stroke-miterlimit:10"></rect><rect x="266.83" y="92.73" width="4.69" height="111.37" style="fill:#616161;stroke:#263238;stroke-miterlimit:10"></rect><rect x="263.14" y="155.08" width="38.52" height="2.56" transform="translate(438.76 -126.03) rotate(90)" style="fill:#fff;stroke:#263238;stroke-miterlimit:10"></rect><rect x="373" y="146.74" width="38.52" height="2.56" transform="translate(540.28 -244.25) rotate(90)" style="fill:#fff;stroke:#263238;stroke-miterlimit:10"></rect><rect x="390.78" y="146.74" width="38.52" height="2.56" transform="translate(558.05 -262.02) rotate(90)" style="fill:#fff;stroke:#263238;stroke-miterlimit:10"></rect><rect x="513.36" y="151.44" width="38.52" height="2.56" transform="translate(1065.23 305.45) rotate(180)" style="fill:#fff;stroke:#263238;stroke-miterlimit:10"></rect><rect x="239.77" y="155.08" width="38.52" height="2.56" transform="translate(415.39 -102.67) rotate(90)" style="fill:#fff;stroke:#263238;stroke-miterlimit:10"></rect><rect x="202.52" y="87.38" width="397.78" height="8.89" style="fill:#a6a6a6;stroke:#263238;stroke-miterlimit:10"></rect></g><g id="freepik--Microwave--inject-33"><rect x="497.85" y="160.23" width="5.37" height="38.1" style="fill:#fff;stroke:#263238;stroke-miterlimit:10"></rect><rect x="563.45" y="160.23" width="5.49" height="38.1" style="fill:#fff;stroke:#263238;stroke-miterlimit:10"></rect><rect x="497.85" y="160.23" width="71.09" height="36.07" style="fill:#fff;stroke:#263238;stroke-miterlimit:10"></rect><rect x="497.85" y="165.25" width="51.33" height="26.02" style="fill:#263238;stroke:#263238;stroke-miterlimit:10"></rect><rect x="552.83" y="165.25" width="14.15" height="26.02" style="fill:#263238;stroke:#263238;stroke-miterlimit:10"></rect><rect x="554.33" y="177.18" width="2.98" height="2.98" style="fill:#fff;stroke:#263238;stroke-miterlimit:10"></rect><rect x="558.31" y="177.18" width="2.98" height="2.98" style="fill:#fff;stroke:#263238;stroke-miterlimit:10"></rect><rect x="562.29" y="177.18" width="2.98" height="2.98" style="fill:#fff;stroke:#263238;stroke-miterlimit:10"></rect><rect x="554.33" y="181.47" width="2.98" height="2.98" style="fill:#fff;stroke:#263238;stroke-miterlimit:10"></rect><rect x="558.31" y="181.47" width="2.98" height="2.98" style="fill:#fff;stroke:#263238;stroke-miterlimit:10"></rect><rect x="562.29" y="181.47" width="2.98" height="2.98" style="fill:#fff;stroke:#263238;stroke-miterlimit:10"></rect><rect x="554.33" y="185.76" width="2.98" height="2.98" style="fill:#fff;stroke:#263238;stroke-miterlimit:10"></rect><rect x="558.31" y="185.76" width="2.98" height="2.98" style="fill:#fff;stroke:#263238;stroke-miterlimit:10"></rect><rect x="562.29" y="185.76" width="2.98" height="2.98" style="fill:#fff;stroke:#263238;stroke-miterlimit:10"></rect><line x1="549.5" y1="160.66" x2="549.5" y2="196.55" style="fill:none;stroke:#263238;stroke-miterlimit:10"></line></g><g id="freepik--gas-stove--inject-33"><rect x="336.27" y="209.37" width="127.1" height="145.97" style="fill:none;stroke:#263238;stroke-miterlimit:10"></rect><rect x="336.27" y="209.37" width="127.1" height="3.96" style="fill:#263238;stroke:#263238;stroke-miterlimit:10"></rect><rect x="336.27" y="438.69" width="13.8" height="7.58" style="fill:#263238;stroke:#263238;stroke-miterlimit:10"></rect><rect x="449.59" y="438.69" width="13.78" height="7.58" style="fill:#263238;stroke:#263238;stroke-miterlimit:10"></rect><rect x="336.27" y="296.15" width="127.1" height="145.97" style="fill:#263238;stroke:#263238;stroke-miterlimit:10"></rect><rect x="336.27" y="310.66" width="127.1" height="102.61" style="fill:#263238;stroke:#263238;stroke-miterlimit:10"></rect><rect x="348.44" y="318.19" width="102.78" height="7.41" style="fill:#263238;stroke:#263238;stroke-miterlimit:10"></rect><rect x="385.72" y="417.57" width="28.21" height="4.83" style="fill:#263238;stroke:#263238;stroke-miterlimit:10"></rect><path d="M363.8,303.26a4.56,4.56,0,1,0-4.56,4.56A4.56,4.56,0,0,0,363.8,303.26Z" style="fill:#263238;stroke:#263238;stroke-miterlimit:10"></path><path d="M380,303.26a4.56,4.56,0,1,0-4.56,4.56A4.56,4.56,0,0,0,380,303.26Z" style="fill:#263238;stroke:#263238;stroke-miterlimit:10"></path><path d="M396.26,303.26a4.56,4.56,0,1,0-4.55,4.56A4.55,4.55,0,0,0,396.26,303.26Z" style="fill:#263238;stroke:#263238;stroke-miterlimit:10"></path><path d="M412.5,303.26a4.56,4.56,0,1,0-4.56,4.56A4.56,4.56,0,0,0,412.5,303.26Z" style="fill:#263238;stroke:#263238;stroke-miterlimit:10"></path><path d="M428.73,303.26a4.56,4.56,0,1,0-4.56,4.56A4.56,4.56,0,0,0,428.73,303.26Z" style="fill:#263238;stroke:#263238;stroke-miterlimit:10"></path><path d="M445,303.26a4.56,4.56,0,1,0-4.55,4.56A4.55,4.55,0,0,0,445,303.26Z" style="fill:#263238;stroke:#263238;stroke-miterlimit:10"></path><rect x="393.33" y="227.09" width="12.98" height="3.95" style="fill:none;stroke:#263238;stroke-miterlimit:10"></rect></g><g id="freepik--Fridge--inject-33"><path d="M60.76,107.75H197.85a1.1,1.1,0,0,1,1.1,1.1v335.6a1.83,1.83,0,0,1-1.83,1.83H61.49a1.83,1.83,0,0,1-1.83-1.83V108.85A1.1,1.1,0,0,1,60.76,107.75Z" style="fill:#dedede;stroke:#263238;stroke-miterlimit:10"></path><line x1="129.31" y1="278.36" x2="129.31" y2="445.92" style="fill:#fff;stroke:#263238;stroke-miterlimit:10"></line><line x1="129.31" y1="107.4" x2="129.31" y2="272.39" style="fill:#fff;stroke:#263238;stroke-miterlimit:10"></line><path d="M68.89,278.26H192.44a2.81,2.81,0,0,0,2.81-2.81h0a2.81,2.81,0,0,0-2.81-2.81H68.89a2.8,2.8,0,0,0-2.8,2.81h0A2.8,2.8,0,0,0,68.89,278.26Z" style="fill:#fff;stroke:#263238;stroke-miterlimit:10"></path><rect x="144.68" y="140.28" width="39.68" height="77.01" style="fill:#263238;stroke:#263238;stroke-miterlimit:10"></rect><rect x="147.79" y="146.32" width="33.46" height="42.09" style="fill:#fff;stroke:#263238;stroke-miterlimit:10"></rect><rect x="148.05" y="193.07" width="4.76" height="4.91" style="fill:#fff;stroke:#263238;stroke-miterlimit:10"></rect><rect x="155.2" y="193.07" width="4.76" height="4.91" style="fill:#fff;stroke:#263238;stroke-miterlimit:10"></rect><rect x="162.34" y="193.07" width="4.76" height="4.91" style="fill:#fff;stroke:#263238;stroke-miterlimit:10"></rect><rect x="169.49" y="193.07" width="4.76" height="4.91" style="fill:#fff;stroke:#263238;stroke-miterlimit:10"></rect><rect x="176.63" y="193.07" width="4.76" height="4.91" style="fill:#fff;stroke:#263238;stroke-miterlimit:10"></rect><rect x="148.05" y="200.96" width="4.76" height="4.91" style="fill:#fff;stroke:#263238;stroke-miterlimit:10"></rect><rect x="155.2" y="200.96" width="4.76" height="4.91" style="fill:#fff;stroke:#263238;stroke-miterlimit:10"></rect><rect x="162.34" y="200.96" width="4.76" height="4.91" style="fill:#fff;stroke:#263238;stroke-miterlimit:10"></rect><rect x="169.49" y="200.96" width="4.76" height="4.91" style="fill:#fff;stroke:#263238;stroke-miterlimit:10"></rect><rect x="176.63" y="200.96" width="4.76" height="4.91" style="fill:#fff;stroke:#263238;stroke-miterlimit:10"></rect><rect x="74.71" y="198.18" width="35.39" height="50.98" style="fill:#fff;stroke:#263238;stroke-miterlimit:10"></rect><rect x="81.13" y="198.18" width="22.55" height="50.98" style="fill:#263238;stroke:#263238;stroke-miterlimit:10"></rect><rect x="81.13" y="198.18" width="22.55" height="15.78" style="fill:#fff;stroke:#263238;stroke-miterlimit:10"></rect></g><g id="freepik--Floor--inject-33"><line x1="16.17" y1="446.27" x2="727.23" y2="446.27" style="fill:none;stroke:#263238;stroke-miterlimit:10"></line></g></svg>
